<svg xmlns="http://www.w3.org/2000/svg" viewBox="0 0 120 120" role="img" aria-label="bomify: a document marked B">
  <g fill="none" stroke="#5865F2" stroke-width="9" stroke-linecap="round" stroke-linejoin="round">
    <!-- document outline, with the top-right corner cut for the fold -->
    <path d="M22,20 a8,8 0 0 1 8,-8 H76 L98,34 V100 a8,8 0 0 1 -8,8 H30 a8,8 0 0 1 -8,-8 Z"/>
    <!-- folded corner -->
    <path d="M76,12 V26 a8,8 0 0 0 8,8 H98"/>
    <!-- B: stem, upper bowl, lower bowl -->
    <path d="M46,88 V44"/>
    <path d="M46,44 H57 a11,11 0 0 1 0,22 H46"/>
    <path d="M46,66 H59 a11,11 0 0 1 0,22 H46"/>
  </g>
</svg>
